# xmcd
# Track frame offsets:
# 150
# 17121
# 40148
# 53181
# 67475
# 86409
# 103989
# 120161
# 136885
# 151018
# 165778
# 184839
# 204839
# 218569
# 237097
#
# Disc length: 3388 seconds
# Revision: 0
# Processed by: cddbd v1.5.1PL0 Copyright (c) Steve Scherf et al.
# Submitted via: VisiTrax 2.9.10.228 - For more info visit www.synapsa.com
#
DISCID=bc0d3a0f
DTITLE=Loveless, Patty - CB90049
DYEAR=1900
DGENRE=Karaoke
TTITLE0=Blame It On Your Heart
TTITLE1=How Can I Help You Say Goodbye
TTITLE2=I Try To Think About Elvis
TTITLE3=Here I Am
TTITLE4=You Don't Even Know Who I Am
TTITLE5=Halfway Down
TTITLE6=You Can Feel Bad
TTITLE7=Thousand Times A Day, A
TTITLE8=Can't Get Enough
TTITLE9=High On Love
TTITLE10=Like Water Into Wine
TTITLE11=Lonely Too Long
TTITLE12=She Drew A Broken Heart
TTITLE13=Trouble With The Truth, The
TTITLE14=You Don't Seem To Miss Me
EXTD=
EXTT0=
EXTT1=
EXTT2=
EXTT3=
EXTT4=
EXTT5=
EXTT6=
EXTT7=
EXTT8=
EXTT9=
EXTT10=
EXTT11=
EXTT12=
EXTT13=
EXTT14=
PLAYORDER=
